<svg width="4" height="5" viewBox="0 0 4 5" fill="none" xmlns="http://www.w3.org/2000/svg">
<path d="M1.9375 4.32741C1.5928 4.32741 1.27794 4.2429 0.992898 4.07386C0.70786 3.90152 0.480824 3.67282 0.31179 3.38778C0.142756 3.10275 0.0565815 2.78788 0.0532671 2.44318C0.0532671 2.09517 0.137784 1.7803 0.306818 1.49858C0.475852 1.21354 0.702888 0.986506 0.987926 0.817471C1.27628 0.645123 1.5928 0.558949 1.9375 0.558949C2.28551 0.558949 2.60038 0.645123 2.8821 0.817471C3.16714 0.986506 3.39418 1.21354 3.56321 1.49858C3.73556 1.7803 3.82173 2.09517 3.82173 2.44318C3.82173 2.78788 3.73556 3.10275 3.56321 3.38778C3.39418 3.67282 3.16714 3.90152 2.8821 4.07386C2.60038 4.2429 2.28551 4.32741 1.9375 4.32741Z" fill="#8E8E8E"/>
</svg>
