<svg width="20" height="21" viewBox="0 0 20 21" fill="none" xmlns="http://www.w3.org/2000/svg">
<path d="M9.375 9.875L9.40917 9.85833C9.51602 9.80495 9.63594 9.7833 9.75472 9.79596C9.8735 9.80862 9.98616 9.85505 10.0794 9.92976C10.1726 10.0045 10.2424 10.1043 10.2806 10.2175C10.3189 10.3307 10.3238 10.4524 10.295 10.5683L9.705 12.9317C9.67595 13.0476 9.68078 13.1695 9.71891 13.2828C9.75704 13.3961 9.82687 13.4961 9.92011 13.571C10.0134 13.6458 10.1261 13.6923 10.245 13.705C10.3639 13.7177 10.4839 13.696 10.5908 13.6425L10.625 13.625M17.5 10.5C17.5 11.4849 17.306 12.4602 16.9291 13.3701C16.5522 14.2801 15.9997 15.1069 15.3033 15.8033C14.6069 16.4997 13.7801 17.0522 12.8701 17.4291C11.9602 17.806 10.9849 18 10 18C9.01509 18 8.03982 17.806 7.12987 17.4291C6.21993 17.0522 5.39314 16.4997 4.6967 15.8033C4.00026 15.1069 3.44781 14.2801 3.0709 13.3701C2.69399 12.4602 2.5 11.4849 2.5 10.5C2.5 8.51088 3.29018 6.60322 4.6967 5.1967C6.10322 3.79018 8.01088 3 10 3C11.9891 3 13.8968 3.79018 15.3033 5.1967C16.7098 6.60322 17.5 8.51088 17.5 10.5ZM10 7.375H10.0067V7.38167H10V7.375Z" stroke="#8E8E8E" stroke-linecap="round" stroke-linejoin="round"/>
</svg>
