<svg width="25" height="26" viewBox="0 0 25 26" fill="none" xmlns="http://www.w3.org/2000/svg">
<g opacity="0.3">
<path d="M16.4062 5.96875C17.2351 5.96875 18.0299 6.29799 18.616 6.88404C19.202 7.47009 19.5312 8.26495 19.5312 9.09375M22.6562 9.09375C22.6564 10.0053 22.4571 10.9059 22.0724 11.7323C21.6877 12.5587 21.1269 13.291 20.4292 13.8778C19.7316 14.4645 18.9141 14.8916 18.034 15.129C17.1538 15.3664 16.2324 15.4084 15.3344 15.2521C14.7479 15.151 14.1271 15.2792 13.7062 15.7L10.9375 18.4688H8.59375V20.8125H6.25V23.1563H2.34375V20.2208C2.34375 19.599 2.59062 19.0021 3.03021 18.5635L9.8 11.7938C10.2208 11.3729 10.349 10.7521 10.2479 10.1656C10.1002 9.31267 10.1313 8.43834 10.3392 7.59803C10.5471 6.75772 10.9273 5.96976 11.4557 5.28409C11.9841 4.59842 12.6492 4.02999 13.4088 3.61483C14.1684 3.19967 15.0059 2.94682 15.8684 2.87232C16.7308 2.79782 17.5993 2.90329 18.4188 3.18204C19.2384 3.46079 19.9911 3.90675 20.6292 4.49165C21.2674 5.07655 21.7771 5.78763 22.126 6.57984C22.4749 7.37205 22.6555 8.2281 22.6562 9.09375Z" stroke="black" stroke-width="1.5" stroke-linecap="round" stroke-linejoin="round"/>
</g>
</svg>
