<svg width="170" height="22" viewBox="0 0 170 22" fill="none" xmlns="http://www.w3.org/2000/svg">
<path d="M1.47858 15.5002V6.42705H4.54431C5.2561 6.42705 5.83794 6.55553 6.28982 6.81248C6.74466 7.06648 7.08136 7.41056 7.29992 7.84473C7.51848 8.27889 7.62776 8.76326 7.62776 9.29785C7.62776 9.83243 7.51848 10.3183 7.29992 10.7554C7.08431 11.1925 6.75057 11.541 6.29868 11.8009C5.8468 12.0579 5.26792 12.1864 4.56203 12.1864H2.36463V11.2117H4.52659C5.01391 11.2117 5.40525 11.1275 5.7006 10.9592C5.99595 10.7908 6.21008 10.5634 6.34299 10.2769C6.47885 9.98749 6.54678 9.66113 6.54678 9.29785C6.54678 8.93457 6.47885 8.60968 6.34299 8.32319C6.21008 8.0367 5.99447 7.81224 5.69617 7.6498C5.39787 7.4844 5.0021 7.4017 4.50887 7.4017H2.57728V15.5002H1.47858ZM11.9472 15.642C11.3329 15.642 10.7939 15.4958 10.3302 15.2034C9.86946 14.911 9.50913 14.5019 9.24923 13.9762C8.99227 13.4505 8.86379 12.8361 8.86379 12.1332C8.86379 11.4244 8.99227 10.8056 9.24923 10.2769C9.50913 9.74825 9.86946 9.33772 10.3302 9.04532C10.7939 8.75293 11.3329 8.60673 11.9472 8.60673C12.5616 8.60673 13.0991 8.75293 13.5598 9.04532C14.0235 9.33772 14.3839 9.74825 14.6408 10.2769C14.9007 10.8056 15.0307 11.4244 15.0307 12.1332C15.0307 12.8361 14.9007 13.4505 14.6408 13.9762C14.3839 14.5019 14.0235 14.911 13.5598 15.2034C13.0991 15.4958 12.5616 15.642 11.9472 15.642ZM11.9472 14.7027C12.4139 14.7027 12.7978 14.5831 13.0991 14.3439C13.4004 14.1047 13.6233 13.7901 13.7681 13.4002C13.9128 13.0104 13.9852 12.588 13.9852 12.1332C13.9852 11.6784 13.9128 11.2545 13.7681 10.8617C13.6233 10.4689 13.4004 10.1514 13.0991 9.90922C12.7978 9.66703 12.4139 9.54594 11.9472 9.54594C11.4806 9.54594 11.0966 9.66703 10.7954 9.90922C10.4941 10.1514 10.2711 10.4689 10.1264 10.8617C9.98169 11.2545 9.90933 11.6784 9.90933 12.1332C9.90933 12.588 9.98169 13.0104 10.1264 13.4002C10.2711 13.7901 10.4941 14.1047 10.7954 14.3439C11.0966 14.5831 11.4806 14.7027 11.9472 14.7027ZM17.9369 15.5002L15.8636 8.69533H16.9623L18.4331 13.9053H18.504L19.9571 8.69533H21.0735L22.5089 13.8876H22.5798L24.0507 8.69533H25.1494L23.076 15.5002H22.0482L20.5596 10.2725H20.4533L18.9647 15.5002H17.9369ZM29.1532 15.642C28.4975 15.642 27.9319 15.4972 27.4564 15.2078C26.9838 14.9154 26.6191 14.5078 26.3621 13.985C26.1081 13.4593 25.9811 12.8479 25.9811 12.1509C25.9811 11.4539 26.1081 10.8396 26.3621 10.3079C26.6191 9.77336 26.9765 9.35692 27.4343 9.05861C27.895 8.75736 28.4325 8.60673 29.0469 8.60673C29.4013 8.60673 29.7513 8.6658 30.0968 8.78394C30.4424 8.90208 30.7569 9.09405 31.0405 9.35987C31.324 9.62273 31.5499 9.97124 31.7183 10.4054C31.8866 10.8396 31.9708 11.3742 31.9708 12.0092V12.4522H26.7254V11.5484H30.9076C30.9076 11.1645 30.8308 10.8218 30.6772 10.5206C30.5266 10.2193 30.311 9.98158 30.0304 9.80732C29.7527 9.63307 29.4249 9.54594 29.0469 9.54594C28.6304 9.54594 28.2701 9.64931 27.9659 9.85606C27.6646 10.0598 27.4328 10.3257 27.2703 10.6535C27.1079 10.9813 27.0267 11.3328 27.0267 11.7079V12.3104C27.0267 12.8243 27.1153 13.26 27.2925 13.6173C27.4727 13.9717 27.7222 14.242 28.0412 14.4281C28.3602 14.6112 28.7308 14.7027 29.1532 14.7027C29.4279 14.7027 29.676 14.6643 29.8975 14.5876C30.1219 14.5078 30.3154 14.3897 30.4778 14.2331C30.6403 14.0736 30.7658 13.8758 30.8544 13.6395L31.8645 13.923C31.7582 14.2656 31.5795 14.5669 31.3284 14.8268C31.0774 15.0837 30.7673 15.2846 30.3981 15.4293C30.0289 15.5711 29.6139 15.642 29.1532 15.642ZM33.5613 15.5002V8.69533H34.5714V9.72315H34.6423C34.7663 9.38645 34.9908 9.11325 35.3157 8.90355C35.6405 8.69386 36.0068 8.58901 36.4144 8.58901C36.4911 8.58901 36.5871 8.59048 36.7023 8.59344C36.8175 8.59639 36.9046 8.60082 36.9637 8.60673V9.66999C36.9283 9.66113 36.847 9.64783 36.72 9.63011C36.596 9.60944 36.4646 9.5991 36.3257 9.5991C35.995 9.5991 35.6996 9.66851 35.4397 9.80732C35.1827 9.94318 34.979 10.1322 34.8283 10.3744C34.6807 10.6136 34.6068 10.8868 34.6068 11.194V15.5002H33.5613ZM40.849 15.642C40.1933 15.642 39.6278 15.4972 39.1522 15.2078C38.6797 14.9154 38.3149 14.5078 38.058 13.985C37.804 13.4593 37.677 12.8479 37.677 12.1509C37.677 11.4539 37.804 10.8396 38.058 10.3079C38.3149 9.77336 38.6723 9.35692 39.1301 9.05861C39.5908 8.75736 40.1284 8.60673 40.7427 8.60673C41.0971 8.60673 41.4471 8.6658 41.7927 8.78394C42.1382 8.90208 42.4528 9.09405 42.7363 9.35987C43.0198 9.62273 43.2458 9.97124 43.4141 10.4054C43.5825 10.8396 43.6667 11.3742 43.6667 12.0092V12.4522H38.4213V11.5484H42.6034C42.6034 11.1645 42.5266 10.8218 42.373 10.5206C42.2224 10.2193 42.0068 9.98158 41.7262 9.80732C41.4486 9.63307 41.1207 9.54594 40.7427 9.54594C40.3263 9.54594 39.9659 9.64931 39.6617 9.85606C39.3605 10.0598 39.1286 10.3257 38.9662 10.6535C38.8037 10.9813 38.7225 11.3328 38.7225 11.7079V12.3104C38.7225 12.8243 38.8111 13.26 38.9883 13.6173C39.1685 13.9717 39.4181 14.242 39.737 14.4281C40.056 14.6112 40.4267 14.7027 40.849 14.7027C41.1237 14.7027 41.3718 14.6643 41.5933 14.5876C41.8178 14.5078 42.0112 14.3897 42.1737 14.2331C42.3361 14.0736 42.4616 13.8758 42.5502 13.6395L43.5603 13.923C43.454 14.2656 43.2753 14.5669 43.0243 14.8268C42.7732 15.0837 42.4631 15.2846 42.0939 15.4293C41.7247 15.5711 41.3098 15.642 40.849 15.642ZM47.8267 15.642C47.2596 15.642 46.759 15.4987 46.3248 15.2122C45.8906 14.9228 45.551 14.5152 45.3058 13.9895C45.0607 13.4608 44.9381 12.8361 44.9381 12.1155C44.9381 11.4007 45.0607 10.7805 45.3058 10.2548C45.551 9.72906 45.8921 9.32295 46.3292 9.03646C46.7663 8.74997 47.2714 8.60673 47.8444 8.60673C48.2874 8.60673 48.6374 8.68057 48.8943 8.82824C49.1542 8.97296 49.3521 9.13836 49.488 9.32443C49.6268 9.50754 49.7346 9.65817 49.8114 9.77631H49.9V6.42705H50.9455V15.5002H49.9354V14.4546H49.8114C49.7346 14.5787 49.6253 14.7352 49.4836 14.9243C49.3418 15.1103 49.1395 15.2772 48.8766 15.4249C48.6138 15.5696 48.2638 15.642 47.8267 15.642ZM47.9684 14.7027C48.3878 14.7027 48.7422 14.5935 49.0317 14.3749C49.3211 14.1534 49.5412 13.8477 49.6918 13.4578C49.8424 13.065 49.9177 12.6117 49.9177 12.0978C49.9177 11.5898 49.8439 11.1453 49.6962 10.7643C49.5485 10.3803 49.33 10.082 49.0405 9.86935C48.7511 9.65374 48.3937 9.54594 47.9684 9.54594C47.5254 9.54594 47.1562 9.65965 46.8609 9.88707C46.5685 10.1115 46.3484 10.4172 46.2008 10.8041C46.056 11.1881 45.9837 11.6193 45.9837 12.0978C45.9837 12.5821 46.0575 13.0222 46.2052 13.418C46.3558 13.8108 46.5773 14.1239 46.8697 14.3572C47.1651 14.5876 47.5313 14.7027 47.9684 14.7027ZM56.6561 15.5002V6.42705H57.7017V9.77631H57.7903C57.8671 9.65817 57.9734 9.50754 58.1092 9.32443C58.2481 9.13836 58.4459 8.97296 58.7029 8.82824C58.9628 8.68057 59.3143 8.60673 59.7573 8.60673C60.3303 8.60673 60.8353 8.74997 61.2724 9.03646C61.7096 9.32295 62.0507 9.72906 62.2958 10.2548C62.541 10.7805 62.6635 11.4007 62.6635 12.1155C62.6635 12.8361 62.541 13.4608 62.2958 13.9895C62.0507 14.5152 61.711 14.9228 61.2769 15.2122C60.8427 15.4987 60.3421 15.642 59.775 15.642C59.3379 15.642 58.9879 15.5696 58.725 15.4249C58.4622 15.2772 58.2599 15.1103 58.1181 14.9243C57.9763 14.7352 57.8671 14.5787 57.7903 14.4546H57.6662V15.5002H56.6561ZM57.6839 12.0978C57.6839 12.6117 57.7593 13.065 57.9099 13.4578C58.0605 13.8477 58.2805 14.1534 58.57 14.3749C58.8594 14.5935 59.2139 14.7027 59.6332 14.7027C60.0704 14.7027 60.4351 14.5876 60.7275 14.3572C61.0229 14.1239 61.2444 13.8108 61.3921 13.418C61.5427 13.0222 61.618 12.5821 61.618 12.0978C61.618 11.6193 61.5442 11.1881 61.3965 10.8041C61.2518 10.4172 61.0317 10.1115 60.7364 9.88707C60.444 9.65965 60.0763 9.54594 59.6332 9.54594C59.2079 9.54594 58.8506 9.65374 58.5611 9.86935C58.2717 10.082 58.0531 10.3803 57.9055 10.7643C57.7578 11.1453 57.6839 11.5898 57.6839 12.0978ZM64.6926 18.052C64.5154 18.052 64.3574 18.0372 64.2185 18.0077C64.0797 17.9811 63.9837 17.9545 63.9306 17.928L64.1964 17.0065C64.4504 17.0714 64.6749 17.0951 64.8698 17.0773C65.0647 17.0596 65.2375 16.9725 65.3881 16.816C65.5417 16.6624 65.682 16.4128 65.809 16.0673L66.0039 15.5356L63.4876 8.69533H64.6217L66.5001 14.1179H66.571L68.4494 8.69533H69.5836L66.695 16.4926C66.5651 16.844 66.4041 17.1349 66.2122 17.3653C66.0202 17.5986 65.7972 17.7714 65.5432 17.8837C65.2921 17.9959 65.0086 18.052 64.6926 18.052Z" fill="white"/>
<path d="M98.666 17.6188V6.79108H103.445C105.564 6.79108 106.919 8.34015 106.919 10.2969C106.919 12.2536 105.564 13.6895 103.445 13.6895H100.933V17.621H98.666V17.6188ZM103.085 11.846C104.389 11.846 104.928 11.1779 104.928 10.2312C104.928 9.33437 104.389 8.66627 103.085 8.66627H100.931V11.846H103.085Z" fill="white"/>
<path d="M112.805 17.6187V16.4932C112.25 17.4059 111.419 17.8294 110.309 17.8294C108.711 17.8294 107.585 16.6381 107.585 14.8784V9.59479H109.705V14.5523C109.705 15.5624 110.162 16.0538 111.059 16.0538C112.135 16.0538 112.706 15.2883 112.706 14.2262V9.59479H114.809V17.6187H112.803H112.805Z" fill="white"/>
<path d="M115.903 17.6188V9.59716H117.891V10.5597C118.593 9.48392 119.408 9.38654 120.271 9.38654H120.548V11.5561C120.353 11.5244 120.156 11.5063 119.961 11.5063C118.657 11.5063 118.02 12.1586 118.02 13.4472V17.6211H115.9L115.903 17.6188Z" fill="white"/>
<path d="M121.3 21.4189V9.59704H123.338L123.354 10.5754C123.859 9.7601 124.609 9.38416 125.587 9.38416C127.61 9.38416 129.061 10.9831 129.061 13.6894C129.061 16.1195 127.838 17.8316 125.766 17.8316C124.772 17.8316 123.988 17.424 123.386 16.5769V21.4212H121.298L121.3 21.4189ZM126.91 13.5422C126.91 12.1064 126.16 11.1121 125.1 11.1121C124.04 11.1121 123.307 12.0565 123.307 13.4108C123.307 15.1547 123.911 16.0198 125.084 16.0198C126.323 16.0198 126.912 15.1887 126.912 13.5399L126.91 13.5422Z" fill="white"/>
<path d="M129.992 17.6187V6.65967H132.112V17.6187H129.992Z" fill="white"/>
<path d="M135.113 14.1629C135.178 15.37 135.862 16.1536 136.906 16.1536C137.59 16.1536 138.195 15.8116 138.342 15.2567H140.528C140.038 16.9032 138.718 17.834 137.006 17.834C134.331 17.834 132.995 16.3664 132.995 13.4631C132.995 10.9832 134.413 9.38654 136.877 9.38654C139.341 9.38654 140.643 10.9854 140.643 14.1651H135.115L135.113 14.1629ZM138.455 12.8267C138.424 11.6354 137.64 11.0647 136.809 11.0647C135.978 11.0647 135.26 11.7169 135.178 12.8267H138.455Z" fill="white"/>
<path d="M147.62 9.9866C147.507 8.87688 146.837 8.34014 145.466 8.34014C144.194 8.34014 143.525 8.79761 143.525 9.61292C143.525 10.2969 143.999 10.6887 145.206 10.9831C146.429 11.2775 147.62 11.5696 148.42 11.9297C149.366 12.3532 150.116 13.0213 150.116 14.5546C150.116 16.9348 148.322 17.9947 145.795 17.9947C143.12 17.9947 141.261 16.8034 141.211 14.3734H143.396C143.428 15.4831 144.359 16.1671 145.811 16.1671C147.147 16.1671 147.915 15.5963 147.915 14.6338C147.915 13.9974 147.588 13.5581 146.234 13.2637C144.898 12.9693 144.033 12.7745 143.265 12.4325C142.108 11.9116 141.456 11.128 141.456 9.75786C141.456 7.81699 142.776 6.43097 145.419 6.43097C148.062 6.43097 149.692 7.91437 149.774 9.9866H147.62Z" fill="white"/>
<path d="M155.903 17.6187C155.837 17.424 155.79 17.1454 155.772 16.9008C155.267 17.4557 154.417 17.8293 153.342 17.8293C151.514 17.8293 150.667 16.9325 150.667 15.628C150.667 13.3135 152.216 13.0508 154.352 12.7586C155.412 12.6114 155.706 12.4008 155.706 11.8459C155.706 11.325 155.185 11.0148 154.352 11.0148C153.389 11.0148 152.997 11.4881 152.9 12.206H150.927C150.959 10.5414 151.874 9.38416 154.449 9.38416C157.024 9.38416 157.873 10.5256 157.873 12.548V17.621H155.901L155.903 17.6187ZM155.756 13.6871C155.543 13.9 155.169 14.0133 154.386 14.1605C153.179 14.3892 152.787 14.7312 152.787 15.4174C152.787 16.0198 153.145 16.3142 153.815 16.3142C154.907 16.3142 155.722 15.5148 155.74 14.5704L155.756 13.6894V13.6871Z" fill="white"/>
<path d="M158.969 17.6187V6.65967H161.089V17.6187H158.969Z" fill="white"/>
<path d="M164.089 14.1629C164.155 15.37 164.839 16.1536 165.883 16.1536C166.567 16.1536 167.172 15.8116 167.319 15.2567H169.504C169.015 16.9032 167.695 17.834 165.983 17.834C163.308 17.834 161.972 16.3664 161.972 13.4631C161.972 10.9832 163.389 9.38654 165.853 9.38654C168.317 9.38654 169.62 10.9854 169.62 14.1651H164.091L164.089 14.1629ZM167.432 12.8267C167.4 11.6354 166.617 11.0647 165.785 11.0647C164.954 11.0647 164.236 11.7169 164.155 12.8267H167.432Z" fill="white"/>
<path d="M90.6058 3.93629C91.2816 3.03186 91.5468 2.11786 91.5825 1.98505L91.6822 1.61666C91.7462 1.37978 91.7083 1.12722 91.5773 0.919509C91.4466 0.712236 91.2346 0.568974 90.9933 0.524559L90.621 0.456629C90.4024 0.416133 88.4399 0.089112 86.7708 1.14202C86.5614 1.2744 86.3615 1.42506 86.1725 1.59358C85.9077 1.35931 85.5154 1.30009 85.1836 1.47427L84.7124 1.7216C84.7033 1.71594 84.6946 1.71028 84.6854 1.70462C83.3125 0.843306 81.6748 1.10588 81.4884 1.13985L81.1135 1.20908C80.8722 1.25393 80.6606 1.39763 80.5304 1.60534C80.4002 1.81305 80.3628 2.06604 80.4272 2.30292L80.5278 2.67001C80.5435 2.72748 80.638 3.05799 80.8509 3.48603C77.7135 5.14509 75.7266 8.40484 75.7266 11.9968C75.7266 17.3049 80.0453 21.6228 85.3539 21.6228C90.6624 21.6228 94.9807 17.3045 94.9807 11.9968C94.9807 8.74884 93.2955 5.6981 90.6058 3.93629Z" fill="white"/>
<path d="M88.8095 4.33874C88.1411 4.03611 87.4383 4.27125 86.7585 4.49855C86.2991 4.65227 85.8236 4.8112 85.3538 4.8112C84.8839 4.8112 84.4393 4.64138 83.993 4.47809C83.3516 4.24251 82.6884 3.99866 82.0505 4.27169C78.954 5.59719 76.9531 8.63007 76.9531 11.9974C76.9531 16.6292 80.7215 20.3972 85.3538 20.3972C89.9861 20.3972 93.7544 16.6288 93.7544 11.9974C93.7544 8.70236 91.8136 5.69603 88.8095 4.33918V4.33874Z" fill="#A25BF7"/>
<path d="M87.9556 12.4267C88.7045 12.4267 89.3116 11.4584 89.3116 10.2639C89.3116 9.06936 88.7045 8.10101 87.9556 8.10101C87.2067 8.10101 86.5996 9.06936 86.5996 10.2639C86.5996 11.4584 87.2067 12.4267 87.9556 12.4267Z" fill="#181818"/>
<path d="M87.9557 11.5968C88.1685 11.5968 88.3411 11.3215 88.3411 10.9819C88.3411 10.6423 88.1685 10.3671 87.9557 10.3671C87.7428 10.3671 87.5703 10.6423 87.5703 10.9819C87.5703 11.3215 87.7428 11.5968 87.9557 11.5968Z" fill="white"/>
<path d="M84.3674 11.1135H83.8458C83.8458 10.729 83.3441 10.4041 82.7506 10.4041C82.1571 10.4041 81.6555 10.729 81.6555 11.1135H81.1338C81.1338 10.4228 81.844 9.88202 82.7506 9.88202C83.6572 9.88202 84.3674 10.4228 84.3674 11.1135Z" fill="#181818"/>
<path d="M88.0223 15.1636V15.167C88.0223 15.3599 88.0014 15.5481 87.9631 15.7288C87.704 16.9323 86.6341 17.835 85.3526 17.835C84.071 17.835 83.0029 16.9341 82.7455 15.7305H82.7438C82.7055 15.5498 82.6846 15.3599 82.6846 15.167V15.1636C82.6846 14.9358 82.8688 14.7495 83.0987 14.7495H87.6086C87.8381 14.7495 88.0227 14.9354 88.0227 15.1636H88.0223Z" fill="#565656"/>
<path d="M85.3523 17.9221C84.0851 17.9221 82.9708 17.0412 82.6756 15.8176H82.6747L82.6586 15.7488C82.6181 15.5572 82.5977 15.3617 82.5977 15.1675C82.5977 14.8879 82.8223 14.6628 83.0984 14.6628H87.6083C87.8844 14.6628 88.1091 14.8875 88.1091 15.1635V15.167C88.1091 15.3599 88.0886 15.555 88.0481 15.7466C87.7769 17.0072 86.643 17.9221 85.3523 17.9221ZM82.8193 15.6661L82.8302 15.7122C83.0827 16.8918 84.1431 17.7479 85.3523 17.7479C86.5615 17.7479 87.6236 16.891 87.8779 15.71C87.9158 15.5306 87.9354 15.3477 87.9354 15.1666V15.1631C87.9354 14.9828 87.7886 14.8361 87.6083 14.8361H83.0984C82.9181 14.8361 82.7714 14.9828 82.7714 15.1631C82.7714 15.3329 82.7875 15.501 82.8193 15.6656V15.6661Z" fill="black"/>
<path d="M86.5213 15.7558V15.7571C86.5213 15.8416 86.5121 15.9239 86.4956 16.0031C86.3824 16.53 85.9138 16.925 85.353 16.925C84.7921 16.925 84.3245 16.5304 84.2121 16.004H84.2112C84.1947 15.9247 84.1855 15.842 84.1855 15.7575V15.7562C84.1855 15.6565 84.2661 15.5751 84.3667 15.5751H86.3406C86.4412 15.5751 86.5217 15.6565 86.5217 15.7562L86.5213 15.7558Z" fill="#484848"/>
<path d="M88.0222 15.0956V15.0987C88.0222 15.2598 88.0013 15.417 87.963 15.5681C87.7666 15.6073 87.3455 15.7366 86.6287 15.8167C86.2773 15.8559 85.855 15.8851 85.352 15.8851C84.8491 15.8851 84.4284 15.859 84.077 15.8198C83.3516 15.7396 82.9309 15.6121 82.7446 15.5698H82.7428C82.7045 15.4187 82.6836 15.2602 82.6836 15.0991V15.0961C82.6836 14.9058 82.8678 14.7503 83.0977 14.7503H87.6076C87.8371 14.7503 88.0217 14.9058 88.0217 15.0961L88.0222 15.0956Z" fill="#E4E4E4"/>
<path d="M86.6297 14.7499C86.6297 14.7499 86.7107 14.9197 86.7107 15.3173C86.7107 15.6861 86.6297 15.8163 86.6297 15.8163C86.2783 15.8555 85.8559 15.8847 85.3529 15.8847C84.85 15.8847 84.4294 15.8585 84.078 15.8193C84.078 15.8193 83.9961 15.687 83.9961 15.2372C83.9961 14.7873 84.078 14.7495 84.078 14.7495H86.6297V14.7499Z" fill="white"/>
<path d="M85.3525 18.0092C84.0683 18.0092 82.9366 17.1322 82.6083 15.9047H82.6044L82.5734 15.7671C82.5316 15.5694 82.5107 15.3678 82.5107 15.1674C82.5107 14.8396 82.7746 14.5761 83.0986 14.5761H87.6085C87.9325 14.5761 88.1964 14.8396 88.1964 15.164V15.1674C88.1964 15.3669 88.175 15.5676 88.1337 15.7653C87.8537 17.066 86.6841 18.0096 85.3529 18.0096L85.3525 18.0092ZM82.9013 15.6334L82.9148 15.6943C83.1587 16.8339 84.1837 17.6613 85.352 17.6613C86.5203 17.6613 87.5471 16.833 87.7927 15.6922C87.8293 15.5189 87.848 15.3425 87.848 15.167V15.1635C87.848 15.0312 87.7405 14.9232 87.6081 14.9232H83.0982C82.9658 14.9232 82.8582 15.0307 82.8582 15.1635C82.8582 15.3225 82.8726 15.4792 82.9013 15.6334Z" fill="#181818"/>
<path d="M89.2093 4.14757C90.324 3.22572 90.7181 1.82141 90.7359 1.75565L90.8357 1.3877L90.4603 1.31934C90.3867 1.30584 88.641 1.00015 87.2384 1.88455C86.567 2.30824 86.1102 2.91917 85.8119 3.44998C85.7936 2.97926 85.734 2.52378 85.5907 2.25119L84.9698 2.57778C85.0403 2.7119 85.0812 2.97316 85.1008 3.2893C84.8783 2.98449 84.59 2.68054 84.2195 2.44802C83.0978 1.74433 81.7065 1.9921 81.6482 2.00299L81.2732 2.07266L81.3738 2.44061C81.3852 2.48242 81.5916 3.20961 82.1315 3.87454C82.0588 3.89544 81.9861 3.91939 81.9129 3.95074C78.6876 5.33155 76.6035 8.49028 76.6035 11.9978C76.6035 16.8221 80.5286 20.7472 85.3534 20.7472C90.1781 20.7472 94.1033 16.8221 94.1033 11.9978C94.1033 8.66141 92.1899 5.61459 89.2093 4.148V4.14757ZM87.6134 2.47763C88.4085 1.97643 89.376 1.93941 89.9177 1.96772C89.7118 2.46761 89.2633 3.32283 88.4647 3.82708C88.4424 3.84101 88.4194 3.85103 88.3967 3.86409C87.7897 3.78658 87.191 3.98558 86.648 4.16716C86.4847 4.22159 86.3249 4.27472 86.1677 4.32087C86.3767 3.81924 86.823 2.97665 87.6138 2.47763H87.6134ZM83.8472 3.0424C84.4006 3.38945 84.7359 3.96685 84.9105 4.35397C84.8483 4.35571 84.7799 4.35527 84.7089 4.35353C84.5156 4.29692 84.3175 4.22464 84.1137 4.15018C83.7901 4.0313 83.4461 3.90546 83.0908 3.84275C82.6414 3.49352 82.3584 3.00016 82.2034 2.65616C82.6279 2.6431 83.2933 2.69535 83.8472 3.04284V3.0424ZM85.3538 19.6943C81.1095 19.6943 77.656 16.2412 77.656 11.9974C77.656 8.91136 79.4897 6.13277 82.327 4.91787C82.4315 4.87302 82.5434 4.8543 82.6628 4.8543C82.9785 4.8543 83.3447 4.98885 83.7505 5.13777C84.2308 5.31413 84.7751 5.514 85.3534 5.514C85.9317 5.514 86.4916 5.32893 86.9807 5.16564C87.5824 4.9649 88.1024 4.79159 88.5195 4.9797C91.272 6.22334 93.0508 8.97841 93.0508 11.9978C93.0508 16.2421 89.5977 19.6948 85.3534 19.6948L85.3538 19.6943Z" fill="#181818"/>
<path d="M89.9182 1.96682C89.8685 2.08701 89.805 2.22722 89.7257 2.37658C89.4788 2.85688 89.0734 3.44342 88.4642 3.82618C87.6691 4.32912 86.7024 4.36526 86.1611 4.33565C86.1633 4.3313 86.1655 4.32651 86.1681 4.32215C86.3741 3.82183 86.8226 2.97706 87.6129 2.4763C88.4102 1.97597 89.3769 1.93939 89.9182 1.96682Z" fill="#949494"/>
<path d="M89.7257 2.37701C89.4788 2.85731 89.0734 3.44386 88.4642 3.82662C87.6691 4.32956 86.7024 4.3657 86.1611 4.33609C86.1633 4.33174 86.1655 4.32695 86.1681 4.32259C86.6641 4.17323 87.4614 3.89672 88.297 3.46215C88.938 3.12903 89.4022 2.72842 89.7261 2.37745L89.7257 2.37701Z" fill="#B7B7B7"/>
<path d="M84.9104 4.35392C84.4845 4.36525 83.8209 4.31299 83.2662 3.96681C82.7136 3.6202 82.3783 3.04279 82.2041 2.65568C82.2224 2.65568 82.2381 2.6535 82.2564 2.65568C82.279 2.6535 82.3016 2.6535 82.3243 2.6535C82.7454 2.6535 83.3432 2.72579 83.8462 3.04323C84.3491 3.35806 84.6705 3.861 84.8564 4.24114C84.8769 4.27946 84.8947 4.31822 84.9108 4.35436L84.9104 4.35392Z" fill="#949494"/>
<path d="M84.9104 4.35424C84.4845 4.36556 83.8209 4.31331 83.2662 3.96713C82.7136 3.62051 82.3783 3.04311 82.2041 2.656C82.2224 2.656 82.2381 2.65382 82.2564 2.656C82.4806 2.94818 82.8725 3.35794 83.4952 3.67973C84.0095 3.9471 84.5028 4.12824 84.8564 4.24146C84.8769 4.27978 84.8947 4.31853 84.9108 4.35468L84.9104 4.35424Z" fill="#B7B7B7"/>
</svg>
