<svg width="95" height="22" viewBox="0 0 95 22" fill="none" xmlns="http://www.w3.org/2000/svg">
<g opacity="0.3" clip-path="url(#clip0_10_888)">
<path d="M23.286 17.6186V6.79089H28.0646C30.1844 6.79089 31.5387 8.33997 31.5387 10.2967C31.5387 12.2534 30.1844 13.6893 28.0646 13.6893H25.553V17.6208H23.286V17.6186ZM27.7045 11.8458C29.009 11.8458 29.548 11.1777 29.548 10.231C29.548 9.33419 29.009 8.66609 27.7045 8.66609H25.5507V11.8458H27.7045Z" fill="#181818"/>
<path d="M37.4247 17.6186V16.493C36.8698 17.4057 36.0387 17.8292 34.9289 17.8292C33.33 17.8292 32.2045 16.6379 32.2045 14.8782V9.5946H34.3243V14.5521C34.3243 15.5622 34.7817 16.0536 35.6786 16.0536C36.7543 16.0536 37.325 15.2881 37.325 14.226V9.5946H39.429V17.6186H37.4224H37.4247Z" fill="#181818"/>
<path d="M40.5229 17.6187V9.59697H42.5113V10.5595C43.2134 9.48374 44.0287 9.38635 44.8916 9.38635H45.1679V11.556C44.9731 11.5243 44.7761 11.5061 44.5813 11.5061C43.2768 11.5061 42.6404 12.1584 42.6404 13.447V17.6209H40.5206L40.5229 17.6187Z" fill="#181818"/>
<path d="M45.9197 21.4188V9.59686H47.958L47.9739 10.5752C48.4789 9.75992 49.2285 9.38397 50.2069 9.38397C52.2293 9.38397 53.681 10.9829 53.681 13.6892C53.681 16.1193 52.458 17.8314 50.3858 17.8314C49.3916 17.8314 48.608 17.4238 48.0056 16.5768V21.421H45.9175L45.9197 21.4188ZM51.5295 13.542C51.5295 12.1062 50.7799 11.112 49.72 11.112C48.6601 11.112 47.9263 12.0564 47.9263 13.4107C47.9263 15.1545 48.531 16.0196 49.7041 16.0196C50.9429 16.0196 51.5318 15.1885 51.5318 13.5398L51.5295 13.542Z" fill="#181818"/>
<path d="M54.6118 17.6185V6.65948H56.7316V17.6185H54.6118Z" fill="#181818"/>
<path d="M59.7322 14.1627C59.7978 15.3698 60.4818 16.1534 61.5258 16.1534C62.2098 16.1534 62.8145 15.8114 62.9617 15.2565H65.1471C64.6579 16.903 63.3376 17.8338 61.6255 17.8338C58.9508 17.8338 57.6146 16.3663 57.6146 13.4629C57.6146 10.983 59.0323 9.38635 61.4964 9.38635C63.9604 9.38635 65.2626 10.9853 65.2626 14.1649H59.7344L59.7322 14.1627ZM63.0749 12.8265C63.0432 11.6352 62.2596 11.0645 61.4284 11.0645C60.5973 11.0645 59.8794 11.7168 59.7978 12.8265H63.0749Z" fill="#181818"/>
<path d="M72.2405 9.98642C72.1273 8.8767 71.4569 8.33996 70.0867 8.33996C68.814 8.33996 68.1459 8.79743 68.1459 9.61274C68.1459 10.2967 68.6192 10.6885 69.8263 10.9829C71.0492 11.2773 72.2405 11.5695 73.0399 11.9296C73.9866 12.3531 74.7362 13.0212 74.7362 14.5544C74.7362 16.9346 72.9426 17.9945 70.4151 17.9945C67.7405 17.9945 65.8811 16.8033 65.8313 14.3732H68.0168C68.0485 15.4829 68.9793 16.1669 70.431 16.1669C71.7672 16.1669 72.5349 15.5962 72.5349 14.6336C72.5349 13.9973 72.2088 13.5579 70.8545 13.2635C69.5183 12.9691 68.6532 12.7743 67.8854 12.4323C66.7281 11.9114 66.0759 11.1278 66.0759 9.75768C66.0759 7.8168 67.3962 6.43079 70.0392 6.43079C72.6821 6.43079 74.3127 7.91419 74.3943 9.98642H72.2405Z" fill="#181818"/>
<path d="M80.5227 17.6185C80.457 17.4238 80.4094 17.1452 80.3913 16.9006C79.8863 17.4555 79.037 17.8292 77.9613 17.8292C76.1336 17.8292 75.2866 16.9323 75.2866 15.6278C75.2866 13.3133 76.8357 13.0506 78.9713 12.7584C80.0312 12.6112 80.3257 12.4006 80.3257 11.8457C80.3257 11.3248 79.8048 11.0146 78.9713 11.0146C78.0088 11.0146 77.617 11.4879 77.5197 12.2058H75.5471C75.5788 10.5413 76.4937 9.38397 79.0687 9.38397C81.6437 9.38397 82.493 10.5254 82.493 12.5478V17.6208H80.5204L80.5227 17.6185ZM80.3755 13.687C80.1626 13.8998 79.7889 14.0131 79.0053 14.1603C77.7982 14.389 77.4064 14.731 77.4064 15.4172C77.4064 16.0196 77.7642 16.3141 78.4346 16.3141C79.5262 16.3141 80.3415 15.5146 80.3596 14.5702L80.3755 13.6892V13.687Z" fill="#181818"/>
<path d="M83.589 17.6185V6.65948H85.7088V17.6185H83.589Z" fill="#181818"/>
<path d="M88.7096 14.1627C88.7752 15.3698 89.4592 16.1534 90.5032 16.1534C91.1872 16.1534 91.7919 15.8114 91.9391 15.2565H94.1245C93.6354 16.903 92.315 17.8338 90.6029 17.8338C87.9282 17.8338 86.592 16.3663 86.592 13.4629C86.592 10.983 88.0098 9.38635 90.4738 9.38635C92.9378 9.38635 94.24 10.9853 94.24 14.1649H88.7118L88.7096 14.1627ZM92.0523 12.8265C92.0206 11.6352 91.237 11.0645 90.4058 11.0645C89.5747 11.0645 88.8568 11.7168 88.7752 12.8265H92.0523Z" fill="#181818"/>
<path d="M15.2259 3.9361C15.9017 3.03168 16.1669 2.11768 16.2026 1.98486L16.3023 1.61648C16.3663 1.37959 16.3285 1.12703 16.1974 0.919326C16.0668 0.712053 15.8547 0.568791 15.6135 0.524376L15.2411 0.456446C15.0225 0.41595 13.06 0.0889289 11.3909 1.14184C11.1815 1.27422 10.9816 1.42488 10.7926 1.5934C10.5279 1.35913 10.1355 1.29991 9.80372 1.47409L9.33256 1.72142C9.32342 1.71576 9.31471 1.7101 9.30557 1.70444C7.9326 0.843123 6.29489 1.1057 6.10851 1.13966L5.73359 1.2089C5.49236 1.25375 5.28073 1.39745 5.15053 1.60515C5.02033 1.81286 4.98288 2.06586 5.04733 2.30274L5.14792 2.66982C5.16359 2.7273 5.25809 3.05781 5.47102 3.48585C2.33362 5.1449 0.34668 8.40466 0.34668 11.9967C0.34668 17.3048 4.66544 21.6226 9.97398 21.6226C15.2825 21.6226 19.6008 17.3043 19.6008 11.9967C19.6008 8.74866 17.9157 5.69792 15.2259 3.9361Z" fill="white"/>
<path d="M13.4297 4.33856C12.7613 4.03593 12.0585 4.27107 11.3788 4.49837C10.9194 4.65208 10.4439 4.81102 9.97401 4.81102C9.50416 4.81102 9.05957 4.6412 8.61324 4.4779C7.97182 4.24233 7.30864 3.99848 6.67071 4.2715C3.57424 5.597 1.57336 8.62989 1.57336 11.9972C1.57336 16.6291 5.34172 20.397 9.97401 20.397C14.6063 20.397 18.3747 16.6286 18.3747 11.9972C18.3747 8.70217 16.4339 5.69585 13.4297 4.339V4.33856Z" fill="#B5B5B5"/>
<path d="M12.5761 12.4266C13.325 12.4266 13.9321 11.4582 13.9321 10.2637C13.9321 9.06918 13.325 8.10083 12.5761 8.10083C11.8272 8.10083 11.2201 9.06918 11.2201 10.2637C11.2201 11.4582 11.8272 12.4266 12.5761 12.4266Z" fill="#181818"/>
<path d="M12.576 11.5966C12.7889 11.5966 12.9614 11.3213 12.9614 10.9817C12.9614 10.6422 12.7889 10.3669 12.576 10.3669C12.3632 10.3669 12.1907 10.6422 12.1907 10.9817C12.1907 11.3213 12.3632 11.5966 12.576 11.5966Z" fill="white"/>
<path d="M8.98766 11.1133H8.46599C8.46599 10.7288 7.96436 10.4039 7.37084 10.4039C6.77733 10.4039 6.27569 10.7288 6.27569 11.1133H5.75403C5.75403 10.4227 6.46424 9.88184 7.37084 9.88184C8.27744 9.88184 8.98766 10.4227 8.98766 11.1133Z" fill="#181818"/>
<path d="M12.6424 15.1634V15.1669C12.6424 15.3598 12.6215 15.5479 12.5832 15.7286C12.3241 16.9322 11.2542 17.8348 9.97267 17.8348C8.69115 17.8348 7.623 16.9339 7.36565 15.7303H7.36391C7.32559 15.5496 7.30469 15.3598 7.30469 15.1669V15.1634C7.30469 14.9356 7.48888 14.7493 7.7188 14.7493H12.2287C12.4582 14.7493 12.6428 14.9352 12.6428 15.1634H12.6424Z" fill="#565656"/>
<path d="M9.97265 17.9219C8.7055 17.9219 7.5912 17.041 7.29596 15.8174H7.29509L7.27898 15.7486C7.23848 15.557 7.21802 15.3615 7.21802 15.1673C7.21802 14.8877 7.44271 14.6626 7.71878 14.6626H12.2287C12.5048 14.6626 12.7295 14.8873 12.7295 15.1634V15.1668C12.7295 15.3597 12.709 15.5548 12.6685 15.7464C12.3972 17.007 11.2633 17.9219 9.97265 17.9219ZM7.43966 15.6659L7.45055 15.712C7.70311 16.8917 8.76342 17.7477 9.97265 17.7477C11.1819 17.7477 12.2439 16.8908 12.4982 15.7098C12.5361 15.5304 12.5557 15.3476 12.5557 15.1664V15.1629C12.5557 14.9827 12.409 14.8359 12.2287 14.8359H7.71878C7.53851 14.8359 7.39176 14.9827 7.39176 15.1629C7.39176 15.3328 7.40787 15.5008 7.43966 15.6654V15.6659Z" fill="black"/>
<path d="M11.1419 15.7556V15.7569C11.1419 15.8414 11.1327 15.9237 11.1162 16.0029C11.003 16.5298 10.5344 16.9248 9.97359 16.9248C9.41273 16.9248 8.94506 16.5303 8.83271 16.0038H8.83184C8.8153 15.9246 8.80615 15.8418 8.80615 15.7573V15.756C8.80615 15.6563 8.88671 15.5749 8.9873 15.5749H10.9612C11.0618 15.5749 11.1423 15.6563 11.1423 15.756L11.1419 15.7556Z" fill="#484848"/>
<path d="M12.6424 15.0954V15.0985C12.6424 15.2596 12.6215 15.4168 12.5832 15.5679C12.3868 15.6071 11.9657 15.7364 11.249 15.8165C10.8976 15.8557 10.4752 15.8849 9.97225 15.8849C9.46931 15.8849 9.04867 15.8588 8.69726 15.8196C7.97181 15.7395 7.55117 15.6119 7.3648 15.5696H7.36305C7.32473 15.4185 7.30383 15.26 7.30383 15.0989V15.0959C7.30383 14.9056 7.48803 14.7501 7.71794 14.7501H12.2279C12.4573 14.7501 12.642 14.9056 12.642 15.0959L12.6424 15.0954Z" fill="#E4E4E4"/>
<path d="M11.2493 14.7497C11.2493 14.7497 11.3303 14.9195 11.3303 15.3171C11.3303 15.6859 11.2493 15.8161 11.2493 15.8161C10.8979 15.8553 10.4755 15.8845 9.97257 15.8845C9.46963 15.8845 9.04899 15.8584 8.69759 15.8192C8.69759 15.8192 8.61572 15.6868 8.61572 15.237C8.61572 14.7872 8.69759 14.7493 8.69759 14.7493H11.2493V14.7497Z" fill="white"/>
<path d="M9.97259 18.009C8.68845 18.009 7.55673 17.132 7.2284 15.9045H7.22448L7.19356 15.7669C7.15176 15.5692 7.13086 15.3676 7.13086 15.1673C7.13086 14.8394 7.39474 14.5759 7.71871 14.5759H12.2286C12.5526 14.5759 12.8165 14.8394 12.8165 15.1638V15.1673C12.8165 15.3667 12.7952 15.5674 12.7538 15.7651C12.4738 17.0658 11.3042 18.0094 9.97302 18.0094L9.97259 18.009ZM7.52146 15.6332L7.53495 15.6942C7.7788 16.8337 8.80385 17.6611 9.97215 17.6611C11.1405 17.6611 12.1672 16.8328 12.4128 15.692C12.4494 15.5187 12.4681 15.3423 12.4681 15.1668V15.1633C12.4681 15.031 12.3606 14.923 12.2282 14.923H7.71828C7.5859 14.923 7.47835 15.0305 7.47835 15.1633C7.47835 15.3223 7.49272 15.479 7.52146 15.6332Z" fill="#181818"/>
<path d="M13.8294 4.14738C14.9441 3.22554 15.3382 1.82122 15.3561 1.75547L15.4558 1.38752L15.0804 1.31915C15.0068 1.30566 13.2611 0.999971 11.8586 1.88436C11.1871 2.30805 10.7303 2.91899 10.432 3.4498C10.4137 2.97908 10.3541 2.5236 10.2108 2.25101L9.58987 2.5776C9.66042 2.71171 9.70135 2.97298 9.72094 3.28912C9.49843 2.9843 9.21017 2.68036 8.8396 2.44783C7.71789 1.74415 6.32664 1.99192 6.26829 2.00281L5.89337 2.07248L5.99395 2.44043C6.00528 2.48223 6.21168 3.20943 6.75163 3.87436C6.67891 3.89526 6.60619 3.91921 6.53304 3.95056C3.30768 5.33136 1.22363 8.49009 1.22363 11.9976C1.22363 16.8219 5.14875 20.7471 9.9735 20.7471C14.7983 20.7471 18.7234 16.8219 18.7234 11.9976C18.7234 8.66122 16.81 5.6144 13.8294 4.14782V4.14738ZM12.2335 2.47744C13.0286 1.97624 13.9962 1.93923 14.5379 1.96753C14.3319 2.46743 13.8834 3.32265 13.0848 3.82689C13.0626 3.84083 13.0395 3.85084 13.0168 3.86391C12.4098 3.7864 11.8111 3.9854 11.2681 4.16698C11.1048 4.22141 10.945 4.27453 10.7878 4.32069C10.9968 3.81906 11.4431 2.97647 12.2339 2.47744H12.2335ZM8.46729 3.04222C9.02075 3.38927 9.35604 3.96667 9.53065 4.35378C9.46838 4.35553 9.40002 4.35509 9.32904 4.35335C9.1357 4.29674 8.93757 4.22446 8.73379 4.14999C8.41025 4.03112 8.06625 3.90527 7.71092 3.84257C7.26154 3.49334 6.9785 2.99998 6.82348 2.65598C7.24804 2.64291 7.9134 2.69517 8.46729 3.04265V3.04222ZM9.97394 19.6941C5.72964 19.6941 2.27611 16.2411 2.27611 11.9972C2.27611 8.91117 4.10977 6.13259 6.94715 4.91769C7.05165 4.87284 7.16356 4.85411 7.28288 4.85411C7.59858 4.85411 7.96479 4.98867 8.37062 5.13759C8.85092 5.31394 9.39523 5.51381 9.9735 5.51381C10.5518 5.51381 11.1118 5.32875 11.6008 5.16546C12.2026 4.96472 12.7225 4.79141 13.1396 4.97952C15.8921 6.22316 17.6709 8.97823 17.6709 11.9976C17.6709 16.2419 14.2178 19.6946 9.9735 19.6946L9.97394 19.6941Z" fill="#181818"/>
<path d="M14.5378 1.96664C14.4882 2.08682 14.4246 2.22704 14.3453 2.3764C14.0984 2.85669 13.693 3.44324 13.0838 3.826C12.2887 4.32894 11.322 4.36508 10.7808 4.33547C10.7829 4.33112 10.7851 4.32633 10.7877 4.32197C10.9937 3.82164 11.4422 2.97688 12.2325 2.47611C13.0298 1.97578 13.9965 1.93921 14.5378 1.96664Z" fill="#949494"/>
<path d="M14.3453 2.37683C14.0984 2.85713 13.693 3.44368 13.0838 3.82643C12.2887 4.32938 11.322 4.36552 10.7808 4.33591C10.7829 4.33155 10.7851 4.32676 10.7877 4.32241C11.2837 4.17305 12.081 3.89654 12.9166 3.46196C13.5576 3.12885 14.0218 2.72824 14.3458 2.37727L14.3453 2.37683Z" fill="#B7B7B7"/>
<path d="M9.53028 4.35374C9.10441 4.36506 8.44079 4.31281 7.88603 3.96663C7.33345 3.62001 6.99815 3.04261 6.82397 2.6555C6.84226 2.6555 6.85794 2.65332 6.87623 2.6555C6.89887 2.65332 6.92152 2.65332 6.94416 2.65332C7.36524 2.65332 7.9631 2.7256 8.46605 3.04305C8.96899 3.35787 9.29035 3.86081 9.47628 4.24096C9.49675 4.27928 9.5146 4.31803 9.53071 4.35418L9.53028 4.35374Z" fill="#949494"/>
<path d="M9.53028 4.35406C9.10441 4.36538 8.44079 4.31312 7.88603 3.96694C7.33345 3.62033 6.99815 3.04293 6.82397 2.65581C6.84226 2.65581 6.85794 2.65364 6.87623 2.65581C7.10048 2.948 7.49239 3.35775 8.11508 3.67955C8.62934 3.94691 9.1227 4.12806 9.47628 4.24128C9.49675 4.2796 9.5146 4.31835 9.53071 4.35449L9.53028 4.35406Z" fill="#B7B7B7"/>
</g>
<defs>
<clipPath id="clip0_10_888">
<rect width="93.8913" height="21.2455" fill="white" transform="translate(0.34668 0.377258)"/>
</clipPath>
</defs>
</svg>
